<?xml version="1.0" encoding="UTF-8" standalone="no"?><!DOCTYPE svg PUBLIC "-//W3C//DTD SVG 1.1//EN" "http://www.w3.org/Graphics/SVG/1.1/DTD/svg11.dtd"><svg width="100%" height="100%" viewBox="0 0 640 640" version="1.1" xmlns="http://www.w3.org/2000/svg" xmlns:xlink="http://www.w3.org/1999/xlink" xml:space="preserve" xmlns:serif="http://www.serif.com/" style="fill-rule:evenodd;clip-rule:evenodd;stroke-linejoin:round;stroke-miterlimit:1.41421;"><rect x="0" y="0" width="640" height="640" style="fill:#00d66c;"/><g><path d="M564.45,389.152l-79.483,79.484c-7.4,7.399 -19.395,7.399 -26.794,0l-79.485,-79.484c-7.399,-7.399 -7.399,-19.395 0,-26.794l8.544,-8.544c7.548,-7.548 19.841,-7.373 27.171,0.389l31.905,33.781l0,-143.768l-148.056,0c-5.023,-0.001 -9.845,-1.998 -13.397,-5.549l-12.631,-12.631c-11.935,-11.936 -3.482,-32.343 13.397,-32.343l192.264,0c10.463,0 18.946,8.482 18.946,18.946l0,175.345l31.905,-33.781c7.33,-7.761 19.622,-7.937 27.171,-0.389l8.544,8.544c7.399,7.399 7.399,19.396 -0.001,26.794Zm-209.306,12.182c-3.552,-3.552 -8.374,-5.549 -13.397,-5.549l-148.055,0l0,-143.769l31.906,33.781c7.33,7.761 19.621,7.937 27.171,0.388l8.543,-8.544c7.399,-7.399 7.399,-19.395 0,-26.793l-79.484,-79.484c-7.399,-7.399 -19.395,-7.399 -26.794,0l-79.485,79.484c-7.399,7.4 -7.399,19.396 0,26.794l8.544,8.543c7.548,7.549 19.84,7.374 27.171,-0.387l31.905,-33.782l0,175.346c0,10.464 8.482,18.946 18.946,18.946l192.264,0c16.879,0 25.332,-20.407 13.397,-32.343l-12.632,-12.631Z" style="fill:#2800a0;fill-rule:nonzero;"/></g></svg>